<svg width="132" height="119" fill="none" xmlns="http://www.w3.org/2000/svg"><g filter="url(#filter0_ii)"><path d="M94.967 0C83.117 0 72.584 5.925 66 15.142 59.417 5.925 48.884 0 37.034 0 16.625 0 .167 16.458.167 36.867.167 65.833 66 118.5 66 118.5s65.834-52.667 65.834-81.633C131.834 16.458 115.375 0 94.967 0z" fill="#fff"/></g><path d="M64.373 16.304L66 18.583l1.628-2.279C73.862 7.577 83.806 2 94.967 2c19.304 0 34.867 15.563 34.867 34.867 0 6.598-3.803 14.889-9.937 23.845-6.078 8.874-14.218 18.08-22.408 26.434-8.182 8.346-16.37 15.798-22.518 21.166a407.021 407.021 0 01-7.42 6.331c-.61.506-1.13.935-1.55 1.28-.421-.345-.941-.774-1.55-1.28a406.966 406.966 0 01-7.422-6.331c-6.146-5.368-14.335-12.82-22.517-21.166-8.19-8.355-16.33-17.56-22.409-26.434-6.134-8.956-9.936-17.247-9.936-23.845C2.167 17.563 17.73 2 37.034 2c11.16 0 21.105 5.577 27.339 14.304z" stroke="#fff" stroke-width="4"/><defs><filter id="filter0_ii" x="-3.833" y="-2" width="141.667" height="124.5" filterUnits="userSpaceOnUse" color-interpolation-filters="sRGB"><feFlood flood-opacity="0" result="BackgroundImageFix"/><feBlend in="SourceGraphic" in2="BackgroundImageFix" result="shape"/><feColorMatrix in="SourceAlpha" values="0 0 0 0 0 0 0 0 0 0 0 0 0 0 0 0 0 0 127 0" result="hardAlpha"/><feOffset dx="6" dy="4"/><feGaussianBlur stdDeviation="8"/><feComposite in2="hardAlpha" operator="arithmetic" k2="-1" k3="1"/><feColorMatrix values="0 0 0 0 0.751093 0 0 0 0 0.920833 0 0 0 0 0.617726 0 0 0 1 0"/><feBlend in2="shape" result="effect1_innerShadow"/><feColorMatrix in="SourceAlpha" values="0 0 0 0 0 0 0 0 0 0 0 0 0 0 0 0 0 0 127 0" result="hardAlpha"/><feOffset dx="-4" dy="-2"/><feGaussianBlur stdDeviation="8"/><feComposite in2="hardAlpha" operator="arithmetic" k2="-1" k3="1"/><feColorMatrix values="0 0 0 0 1 0 0 0 0 1 0 0 0 0 1 0 0 0 1 0"/><feBlend in2="effect1_innerShadow" result="effect2_innerShadow"/></filter></defs></svg>